<?xml version="1.0" encoding="utf-8"?>
<!-- Generator: Adobe Illustrator 24.3.0, SVG Export Plug-In . SVG Version: 6.00 Build 0)  -->
<svg version="1.1" id="Layer_1" xmlns="http://www.w3.org/2000/svg" xmlns:xlink="http://www.w3.org/1999/xlink" x="0px" y="0px"
	 viewBox="0 0 881 823" style="enable-background:new 0 0 881 823;" xml:space="preserve">
<style type="text/css">
	.st0{fill:#46B4F4;}
	.st1{fill:#ED6092;}
	.st2{fill:#9971B3;}
	.st3{fill:#FAAD44;}
	.st4{fill:#FBAD40;}
	.st5{fill:#FA7E4A;}
	.st6{fill:#C2C1C1;}
	.st7{fill:#0A0A0A;}
	.st8{fill:#E95E91;}
	.st9{fill:#FB7C46;}
	.st10{fill:#EBB468;}
	.st11{fill:#E3E2E3;}
	.st12{fill:#C54F7E;}
	.st13{fill:#A3B14B;}
	.st14{fill:#CB786F;}
	.st15{fill:#F2F1F0;}
</style>
<g>
	<path class="st1" d="M492.84,277.59c25.73,11.45,45.1,29.43,56.75,55.32c0.23,1.72,0.61,3.38,2.24,4.38c0,0-0.02-0.04-0.02-0.04
		c0.21,1.72,0.54,3.38,2.16,4.4c0.47,0.33,0.53,0.72,0.18,1.18c0.03,2.16,0.21,4.26,2.26,5.6l0.32,0.47c0,0-0.4,0.41-0.4,0.41
		c0.09,2.08,0.13,4.18,2.1,5.55c0.47,0.42,0.52,0.87,0.13,1.37c0.12,2.62-0.5,5.43,2,7.4c0.47,0.5,0.53,1.05,0.16,1.64
		c0.21,5.07,0.6,10.08,1.24,15.15c1.18,9.17,3.25,18.23,1.36,27.95c-1.65,8.49-5.45,16.67-4.9,25.59c-0.31,0.19-0.77,0.31-0.9,0.59
		c-8.43,17.86-19.77,33.7-33.35,47.99c-0.46,0.49-0.56,1.32-0.83,2c-4.58,0.52-7.99,3.16-11.48,5.93
		c-11.58,9.2-24.45,15.79-39.13,18.49c-6.85-4.62-14.42-1.89-21.65-1.87c-3.18,0.01-4.56,2.98-4.84,6.1
		c-4.4-0.01-8.79-0.03-13.19-0.04c-0.34-1.55-0.37-3.6-2.66-3.2c-1.39,0.24-1.56,1.87-1.74,3.17c-8.34-3.24-17.64-0.71-25.91-4.34
		c0,0-0.4-0.16-0.4-0.16c-8.28-7.2-16.44-14.63-28.72-12.93c0,0,0,0.01,0,0.01c-0.14-4.3-3.19-4.49-6.36-4.51c0,0-0.2-0.13-0.2-0.13
		c-0.77-0.65-1.53-1.3-2.3-1.95c0,0,0.01,0.05,0.01,0.05c-0.14-5.66-3.83-6.85-8.53-6.75c0,0-0.19-0.14-0.18-0.14
		c-0.73-0.66-1.45-1.32-2.18-1.99c0,0-0.05-0.05-0.05-0.05c-0.74-0.71-1.48-1.42-2.21-2.13c0,0,0,0,0,0
		c-0.75-0.73-1.5-1.46-2.26-2.19c0,0,0.01,0.04,0.01,0.04c0.19-15.63-1.15-17.42-16.44-21.94c-0.34-0.1-0.72-0.08-1.08-0.11
		c0,0-0.01-0.03-0.01-0.03c-0.03-1.83-0.48-3.45-2.27-4.36c0,0,0.03,0.04,0.03,0.04c0.01-1.87-0.43-3.51-2.28-4.43
		c0,0,0.04,0.06,0.04,0.06c-0.21-3.62,1.53-8.25-4.56-8.84c-0.68,0.02-1.34-0.08-1.98-0.31c-0.11-2.16,0.35-4.56-0.43-6.45
		c-5.96-14.39-6.71-29.46-6.3-44.72c-0.27-0.56-0.19-1.05,0.24-1.5c1.97-1.21,2.22-2.56,0.32-4.08
		c0.45-25.59,10.5-47.63,26.22-67.07c7.26-8.98,15.19-17.77,25.57-23.64c1.23-0.21,2.12-0.85,2.6-2.03c0,0,0.12,0.07,0.12,0.07
		c5.09-0.15,6.35,4.26,8.67,7.34c10.3,13.66,30.79,17.02,48.26,6.26c-10.79,0.67-19.96,3.48-29.2,1.23
		c-10.49-2.56-16.4-10.22-21.29-19.03c1.73-0.28,3.46-0.57,4.49-2.24c5.01-2.53,10.02-5.06,15.03-7.59
		c2.41,9.97,6.58,12.19,15.13,7.83c6.25-3.18,10.58-7.72,9.62-15.46c0.71-0.12,1.42-0.24,2.14-0.34c1.53,0.4,3.06,0.8,4.59,1.2
		c0,0,0.09,0.95,0.09,0.95c-0.08,2.16-0.2,4.33-0.22,6.49c-0.04,3.32,0.02,6.84,3.71,8.26c3.92,1.5,7.8,1.18,11.05-1.98
		c2.34-2.27,4.83-4.43,4.98-8.05c0.13-3.17,1.58-5.48,4.49-6.83c5.13,2.1,10.49,3.26,15.95,4.04c1.37,0.21,2.73,0.41,4.1,0.61
		c1.12,1.7,2.82,1.78,4.6,1.62c0.71-0.15,1.35-0.01,1.92,0.42c1.11,1.8,2.85,1.94,4.7,1.8c0.71-0.15,1.35,0.01,1.91,0.47
		c0.96,1.65,2.54,1.88,4.24,1.85c0,0,0.08,0.04,0.08,0.04C489.21,277.42,490.93,277.71,492.84,277.59z M411.25,385.47
		c0.16-16.87-10.41-27.97-26.27-28.68c-14.83-0.67-27.02,12.52-27.55,26.91c-0.54,14.44,12.55,27.34,27.13,27.53
		C399.82,411.42,411.12,400.52,411.25,385.47z M523.25,384.15c-0.17-15.32-12.76-27.52-28.19-27.3c-14.03,0.19-26.36,13.04-26,27.07
		c0.4,15.43,11.96,27.07,27.14,27.33C511,411.49,523.42,399.05,523.25,384.15z M379.95,346.09c6.25,0.05,11.31-2.4,14.84-7.55
		c1.38-2.01,3.15-4.28,1.88-6.99c-1.26-2.68-3.88-2.9-6.5-3.07c-5.85-0.38-10.62,1.85-14.65,5.9c-2.31,2.33-4.95,4.68-3.11,8.44
		C373.93,345.92,376.95,346.09,379.95,346.09z M490.73,328.52c-1.86,0.38-5.31-0.85-6.56,2.92c-1.04,3.14,0.33,5.73,2.66,7.74
		c3.62,3.13,7.89,5.21,12.44,6.5c2.97,0.84,5.9,0.21,7.53-2.8c1.52-2.8,1.24-5.67-0.82-8.13
		C502.25,330.28,497.4,328.22,490.73,328.52z M433.31,391.32c8.48-0.27,15.12-2.73,20.26-8.58c1.03-1.17,1.49-2.51,0.32-3.82
		c-0.85-0.94-2.16-0.88-2.97-0.16c-6.08,5.37-13.25,7.33-21.2,7.09c-1.48-0.04-3.04,0.53-2.91,2.45c0.11,1.74,1.65,2.22,3.05,2.53
		C431.25,391.13,432.71,391.23,433.31,391.32z"/>
	<path class="st1" d="M575.84,397.4c5.54-0.67,5.26-5.69,6.22-9.18c4.06-14.79,7.66-29.72,11.41-44.59
		c0.27-1.06,0.38-2.16,0.65-3.22c5.87-22.88,13.86-28.68,37.54-26.7c5.05,0.42,10.2,1.42,14.95,3.13c9.34,3.36,10.02,7.2,2.96,15.15
		c3.89,4.18,9.19,7.05,12.42,11.91c3.7,5.57,7.5,11.21,1.88,17.79c-1.02,1.2-1.46,2.46-0.89,3.98c2.22,5.96,1.35,10.89-2.95,16.08
		c-2.28,2.75-1.74,7.7-6.03,9.73c-3.71,1.76-7.07-1.14-10.86-0.52c-4.98,12.87-9.82,25.84-15.02,38.66
		c-2.61,6.43-5.67,12.69-8.88,18.85c-7.35,14.08-20.08,18.12-34.06,10.46c-8.37-4.58-15.6-10.71-20.41-19.23
		C568.61,425.63,573.26,411.79,575.84,397.4z M637.57,381.29c0.54,0.74-0.92,2.92,1.6,2.23c-0.52-0.75-1.05-1.5-1.57-2.25
		c-0.68-4.98-3.9-8.79-7.07-12.05c-2.83-2.91-3.5-8.86-11.05-9.01C625.56,368.65,628.29,377.66,637.57,381.29z"/>
	<path class="st1" d="M314.55,441.58c-4.86,8.61-12.5,14.32-20.95,18.69c-11.81,6.1-25.56,1.5-31.85-10.53
		c-9.69-18.54-16.91-38.11-23.02-57.93c-2.62-2.48-4.96-0.1-7.33,0.09c-3.21,0.25-6.26-0.6-7.56-3.39
		c-2.13-4.59-6.77-9.07-7.09-12.91c-0.61-7.24-2.79-14.44-2.43-21.49c0.31-6.04,5-11.23,9.69-15.54c1.08-0.99,2.1-2.05,3.25-2.96
		c2.63-2.08,3.36-3.66,1.05-7.13c-3.66-5.49-2.64-8.8,3.44-10.92c13.38-4.66,27.2-6.01,40.97-1.7c8.11,2.54,10.23,10.29,12.19,17.2
		c2.99,10.55,4.8,21.42,7.29,32.11c1.9,8.19,3.92,16.37,6.16,24.47c0.94,3.42,1.35,7.32,4.98,9.39
		C307.07,413.21,310.81,427.39,314.55,441.58z M252.68,368.05c-5.38,3.31-8.25,8.22-9.39,14.24c5.44-3.25,9.56-7.35,9.44-14.19
		c1.31-0.41,2.82-0.53,3.88-1.29c1.36-0.98,2.86-2.64,0.79-4.14c-1.2-0.86-2.74,0.26-3.43,1.47
		C253.3,365.31,253.09,366.74,252.68,368.05z"/>
	<path class="st8" d="M534.24,502.26c8.98,20.2,20.81,38.87,31.37,58.22c2.42,4.43,5.99,8.27,11.83,8.38
		c0.85,2.97,3.46,4.63,5.16,6.97c3.19,4.4,2.24,7.33-2.96,9.03c-2.04,0.66-4.3,0.85-6.46,0.86c-17.91,0.07-35.83-0.09-53.74,0.13
		c-5.06,0.06-8.13-1.87-10.48-6.21c-2.93-5.43-6.37-10.58-9.6-15.85c-1.02-6.24-4.86-11.2-7.69-16.6c-4-7.64-9.29-14.61-11.73-23.05
		c1.96-2.51,3.24-5.36,6.81-6.63c11.74-4.16,21.95-11.16,31.82-18.56c3.12-2.34,6.18-3.63,9.96-3.48
		C530.42,497.74,532.33,500,534.24,502.26z"/>
	<path class="st14" d="M380.08,280.18c-1.04,1.67-2.76,1.97-4.49,2.24c-1.5,0.66-3.01,1.32-4.51,1.98
		c-4.53-20.09-0.02-33.88,14.29-43.64c12.98-8.86,23.4-7.55,33.42,4.66c2.31,2.82,4.72,4.14,8.24,4.47
		c8.53,0.8,15.25,4.75,19.66,12.28c-2.34,0.81-4.68,1.62-7.02,2.43c0.87-2.77,0.04-5-2.37-6.51c-3.97-2.49-8.28-5.63-12.94-3.35
		c-3.73,1.82-1.54,6.54-2.35,9.89c-0.71,0.11-1.43,0.22-2.14,0.34c-0.61-0.16-1.22-0.28-1.85-0.35c-0.26-3.15,1.26-6.51-1.07-9.42
		c-11.29,2.08-15.12,5.68-16.9,15.86c-1.52,0.07-3.05,0.14-4.57,0.21c-0.66-13.46,10.02-17.3,19.38-22.05
		c-5.68-8.83-11.31-11.05-20.18-8.29c-12.7,3.95-23.47,22.24-20.97,35.19C374.47,280.12,376.93,280.43,380.08,280.18z"/>
	<path class="st12" d="M528.52,495.48c-3.78-0.15-6.84,1.13-9.96,3.48c-9.87,7.4-20.08,14.41-31.82,18.56
		c-3.57,1.26-4.85,4.12-6.81,6.63c-2.44-4.37-4.88-8.74-7.32-13.11c0.05-0.69,0.09-1.39,0.13-2.08c14.68-2.7,27.56-9.29,39.13-18.49
		c3.49-2.78,6.89-5.41,11.48-5.93C525.99,487.75,527.6,491.45,528.52,495.48z"/>
	<path class="st12" d="M575.84,397.4c-2.58,14.39-7.23,28.23-11.07,42.29c-2.75-1.19-4.59-3.41-6.34-5.72
		c-0.55-8.91,3.25-17.09,4.9-25.59c1.89-9.72-0.19-18.78-1.36-27.95c-0.65-5.06-1.04-10.08-1.24-15.15c0.22,0.28,0.6,0.54,0.64,0.84
		C563,378.03,568.47,388.15,575.84,397.4z"/>
	<path class="st12" d="M314.55,441.58c-3.74-14.19-7.48-28.37-11.21-42.55c3.23-4.98,6.28-10.1,10.75-14.14
		c-0.41,15.25,0.34,30.32,6.3,44.71c0.78,1.89,0.32,4.29,0.43,6.45C318.72,437.88,316.64,439.73,314.55,441.58z"/>
	<path class="st8" d="M439.67,264.59c2.34-0.81,4.68-1.62,7.01-2.42c1.23-0.14,2.47-0.29,3.7-0.43c0.1,0.98,0.21,1.95,0.31,2.92
		c-2.91,1.35-4.36,3.66-4.49,6.83c-0.15,3.62-2.65,5.77-4.98,8.05c-3.24,3.16-7.13,3.48-11.05,1.98c-3.69-1.41-3.75-4.93-3.71-8.26
		c0.03-2.17,0.15-4.33,0.22-6.49c4.29-0.62,9.09,1.87,12.83-2.1L439.67,264.59z"/>
	<path class="st12" d="M371.08,284.4c1.51-0.66,3.01-1.32,4.51-1.98c4.89,8.81,10.79,16.47,21.29,19.03
		c9.24,2.25,18.41-0.55,29.2-1.23c-17.47,10.76-37.96,7.4-48.26-6.26c-2.32-3.08-3.59-7.5-8.67-7.34
		C369.79,285.88,370.43,285.14,371.08,284.4z"/>
	<path class="st8" d="M331.84,453.9c0.36,0.03,0.74,0.01,1.08,0.11c15.29,4.52,16.63,6.31,16.44,21.94
		C341.47,470.24,335.56,462.95,331.84,453.9z"/>
	<path class="st14" d="M450.7,264.67c-0.1-0.97-0.21-1.95-0.31-2.92c6.83-2.75,13.69-3.61,20.7-0.76c0.05,4.73-3.67,2.59-5.37,3.74
		c-2.78,1.9,0.47,2.68,0.93,3.98C461.19,267.93,455.83,266.77,450.7,264.67z"/>
	<path class="st8" d="M373.61,495.7c12.28-1.7,20.45,5.74,28.72,12.93c-9.57-1.52-17.83-6.44-26.53-10.23
		C375.07,497.51,374.34,496.61,373.61,495.7z"/>
	<path class="st8" d="M356.24,482.41c4.7-0.09,8.39,1.09,8.53,6.75C360.86,488.26,358.23,485.75,356.24,482.41z"/>
	<path class="st8" d="M322.8,436.35c6.09,0.59,4.35,5.22,4.56,8.84C324.59,442.89,323.6,439.66,322.8,436.35z"/>
	<path class="st8" d="M367.25,491.2c3.17,0.02,6.22,0.21,6.36,4.51C370.73,495.28,368.57,493.84,367.25,491.2z"/>
	<path class="st14" d="M475.35,270.95c-1.78,0.15-3.48,0.08-4.6-1.62C472.79,268.45,474.1,269.6,475.35,270.95z"/>
	<path class="st12" d="M560.56,363.64c-2.5-1.97-1.88-4.78-2-7.4C560.59,358.34,560.67,360.96,560.56,363.64z"/>
	<path class="st12" d="M558.43,354.87c-1.97-1.37-2.01-3.46-2.1-5.55C558.12,350.76,558.44,352.75,558.43,354.87z"/>
	<path class="st12" d="M556.41,348.44c-2.06-1.34-2.24-3.44-2.26-5.6C555.88,344.3,556.33,346.3,556.41,348.44z"/>
	<path class="st12" d="M553.97,341.66c-1.63-1.02-1.95-2.68-2.16-4.4C553.39,338.3,553.9,339.87,553.97,341.66z"/>
	<path class="st12" d="M551.83,337.29c-1.63-1.01-2.01-2.66-2.24-4.38C551.18,333.94,551.71,335.51,551.83,337.29z"/>
	<path class="st12" d="M314.65,379.29c1.9,1.52,1.64,2.87-0.32,4.08C314.43,382.02,314.54,380.66,314.65,379.29z"/>
	<path class="st14" d="M481.97,273.17c-1.85,0.14-3.6,0-4.7-1.8C479.09,271.31,480.73,271.72,481.97,273.17z"/>
	<path class="st14" d="M488.12,275.48c-1.69,0.03-3.28-0.2-4.24-1.85C485.59,273.6,487.09,273.99,488.12,275.48z"/>
	<path class="st14" d="M492.84,277.59c-1.91,0.12-3.63-0.16-4.64-2.07C490.03,275.59,491.66,276.07,492.84,277.59z"/>
	<path class="st8" d="M327.31,445.12c1.85,0.91,2.29,2.55,2.28,4.43C327.89,448.56,327.37,446.96,327.31,445.12z"/>
	<path class="st8" d="M329.56,449.51c1.8,0.91,2.24,2.53,2.27,4.36C330.2,452.88,329.62,451.33,329.56,449.51z"/>
	<path class="st8" d="M364.76,489.12c0.77,0.65,1.53,1.3,2.3,1.95C365.86,490.93,365.08,490.3,364.76,489.12z"/>
	<path class="st8" d="M353.88,480.29c0.73,0.66,1.45,1.32,2.18,1.99C354.87,482.12,354.15,481.46,353.88,480.29z"/>
	<path class="st8" d="M351.61,478.11c0.74,0.71,1.48,1.42,2.21,2.13C352.62,480.02,351.89,479.3,351.61,478.11z"/>
	<path class="st8" d="M349.36,475.92c0.75,0.73,1.5,1.46,2.26,2.19C350.42,477.83,349.67,477.11,349.36,475.92z"/>
	<path class="st14" d="M369.03,286.56c-0.48,1.17-1.36,1.82-2.6,2.03C367.3,287.91,368.16,287.23,369.03,286.56z"/>
	<path class="st8" d="M463.72,563.94c0.05,5.49-0.06,10.99,0.19,16.46c0.23,4.88-1.26,7.6-6.7,7.56c-19.4-0.14-38.81,0.13-58.21-0.2
		c-7.28-0.12-8.75-4-4.43-10.1c3.05-4.3,8.91-7.05,7.44-13.78c0.14-10.79,0.25-21.57,0.42-32.36c0.06-3.94-0.35-7.93,0.92-11.78
		c18.34,4.18,36.94,5.2,55.68,4.43c1.63,10.79,3,21.59,2.88,32.54C461.87,559.26,461.89,561.85,463.72,563.94z"/>
	<path class="st12" d="M459.03,524.18c-18.74,0.78-37.34-0.25-55.68-4.43c-0.2-3.65-0.41-7.31-0.62-10.96
		c8.28,3.62,17.58,1.09,25.92,4.34c1.47,0.01,2.94,0.02,4.41,0.03c4.4,0.01,8.79,0.03,13.19,0.04c4.69,0.23,9.94-1.11,12.77,4.46
		C459.02,519.83,459.02,522.01,459.03,524.18z"/>
	<path class="st11" d="M411.25,385.47c-0.14,15.04-11.44,25.94-26.7,25.76c-14.58-0.18-27.67-13.09-27.13-27.53
		c0.54-14.39,12.72-27.58,27.55-26.91C400.85,357.51,411.41,368.6,411.25,385.47z M385.25,365.79
		c-10.38-0.04-17.94,7.36-18.19,17.81c-0.26,10.78,7.86,19.46,18.07,19.29c9.8-0.16,17.62-8.43,17.64-18.64
		C402.8,373.72,395.32,365.84,385.25,365.79z"/>
	<path class="st11" d="M523.25,384.15c0.16,14.91-12.26,27.35-27.05,27.1c-15.17-0.26-26.73-11.9-27.14-27.33
		c-0.37-14.03,11.97-26.87,26-27.07C510.5,356.63,523.09,368.82,523.25,384.15z M514.3,384.32c-0.02-10.49-7.53-18.38-17.63-18.54
		c-10.77-0.17-18.69,7.84-18.52,18.76c0.15,10.13,8.37,18.37,18.19,18.24C506.21,402.64,514.32,394.31,514.3,384.32z"/>
	<path class="st12" d="M379.95,346.09c-2.99-0.01-6.01-0.17-7.53-3.26c-1.84-3.76,0.79-6.12,3.11-8.44c4.03-4.06,8.8-6.28,14.65-5.9
		c2.62,0.17,5.24,0.39,6.5,3.07c1.28,2.71-0.49,4.98-1.88,6.99C391.26,343.7,386.19,346.14,379.95,346.09z"/>
	<path class="st12" d="M490.73,328.52c6.67-0.3,11.52,1.77,15.25,6.23c2.06,2.46,2.33,5.33,0.82,8.13c-1.63,3.01-4.57,3.64-7.53,2.8
		c-4.55-1.29-8.82-3.37-12.44-6.5c-2.33-2.02-3.7-4.6-2.66-7.74C485.42,327.66,488.87,328.89,490.73,328.52z"/>
	<path class="st7" d="M433.31,391.32c-0.6-0.08-2.06-0.19-3.47-0.5c-1.4-0.31-2.94-0.79-3.05-2.53c-0.12-1.92,1.43-2.49,2.91-2.45
		c7.96,0.24,15.12-1.71,21.2-7.09c0.81-0.72,2.13-0.78,2.97,0.16c1.17,1.31,0.71,2.65-0.32,3.82
		C448.42,388.58,441.78,391.05,433.31,391.32z"/>
	<path class="st8" d="M395.12,272.59c-0.1-0.5,0.02-0.94,0.36-1.33c1.52-0.07,3.05-0.14,4.58-0.2c0,0,0.1,0.12,0.1,0.12
		c0.06,2.86-0.35,6.09,3.77,6.49c4.02,0.39,6.39-1.7,8.07-5c-2.21-1.35-3.7-2.26-5.19-3.17c3.86-1.36,8.52-0.87,11.21-4.88
		c0.62,0.07,1.24,0.18,1.85,0.35c0.96,7.75-3.37,12.28-9.62,15.46C401.69,284.77,397.53,282.56,395.12,272.59z"/>
	<path class="st15" d="M422.01,264.62c0.81-3.35-1.37-8.07,2.35-9.89c4.66-2.27,8.97,0.86,12.94,3.35c2.4,1.51,3.23,3.74,2.37,6.51
		c0,0-0.15,0.07-0.14,0.07c-4.31,0.38-8.61,0.77-12.92,1.15C425.07,265.42,423.54,265.02,422.01,264.62z"/>
	<path class="st8" d="M459.01,517.66c-2.83-5.57-8.08-4.23-12.77-4.46c0.27-3.12,1.66-6.09,4.84-6.1c7.24-0.02,14.8-2.75,21.65,1.87
		c-0.04,0.7-0.08,1.39-0.12,2.08C461.32,510.85,461.32,510.85,459.01,517.66z"/>
	<path class="st14" d="M426.6,265.82c4.31-0.38,8.62-0.77,12.92-1.15c-3.75,3.97-8.55,1.48-12.83,2.1
		C426.69,266.77,426.6,265.82,426.6,265.82z"/>
	<path class="st8" d="M433.05,513.16c-1.47-0.01-2.94-0.02-4.41-0.03c0.18-1.3,0.36-2.93,1.74-3.17
		C432.68,509.56,432.71,511.61,433.05,513.16z"/>
	<path class="st12" d="M637.57,381.29c-9.28-3.63-12-12.64-18.08-21.08c7.54,0.15,8.22,6.1,11.05,9.01
		c3.17,3.26,6.38,7.07,7.07,12.05L637.57,381.29z"/>
	<path class="st12" d="M637.59,381.26c0.52,0.75,1.05,1.5,1.57,2.25c-2.53,0.69-1.06-1.49-1.6-2.23
		C637.57,381.29,637.59,381.26,637.59,381.26z"/>
	<path class="st12" d="M252.73,368.1c0.12,6.84-4,10.94-9.44,14.19c1.14-6.02,4.01-10.93,9.39-14.24L252.73,368.1z"/>
	<path class="st12" d="M252.68,368.05c0.41-1.31,0.62-2.74,1.29-3.9c0.69-1.21,2.23-2.34,3.43-1.47c2.07,1.5,0.58,3.16-0.79,4.14
		c-1.06,0.76-2.57,0.88-3.88,1.29C252.73,368.1,252.68,368.05,252.68,368.05z"/>
	<path class="st11" d="M418.02,264.61c-2.7,4.01-7.36,3.52-11.22,4.88c-2.22,0.56-4.44,1.12-6.66,1.68c0,0-0.1-0.11-0.1-0.12
		c1.78-10.19,5.61-13.79,16.9-15.87C419.28,258.1,417.77,261.46,418.02,264.61z"/>
	<path class="st7" d="M385.25,365.79c10.06,0.04,17.55,7.92,17.52,18.46c-0.02,10.22-7.85,18.48-17.64,18.64
		c-10.21,0.17-18.33-8.51-18.07-19.29C367.32,373.15,374.88,365.75,385.25,365.79z"/>
	<path class="st7" d="M514.3,384.32c0.02,9.99-8.09,18.32-17.97,18.45c-9.81,0.13-18.03-8.11-18.19-18.24
		c-0.16-10.91,7.75-18.93,18.52-18.76C506.77,365.94,514.27,373.84,514.3,384.32z"/>
	<path class="st1" d="M400.15,271.17c2.22-0.56,4.44-1.12,6.66-1.68c1.49,0.91,2.98,1.82,5.19,3.17c-1.68,3.3-4.05,5.39-8.07,5
		C399.8,277.26,400.21,274.04,400.15,271.17z"/>
</g>
</svg>
