<?xml version="1.0" encoding="utf-8"?>
<!-- Generator: Adobe Illustrator 24.3.0, SVG Export Plug-In . SVG Version: 6.00 Build 0)  -->
<svg version="1.1" id="Layer_1" xmlns="http://www.w3.org/2000/svg" xmlns:xlink="http://www.w3.org/1999/xlink" x="0px" y="0px"
	 viewBox="0 0 881 823" style="enable-background:new 0 0 881 823;" xml:space="preserve">
<style type="text/css">
	.st0{fill:#46B4F4;}
	.st1{fill:#ED6092;}
	.st2{fill:#9971B3;}
	.st3{fill:#FBAD40;}
	.st4{fill:#FA7E4A;}
	.st5{fill:#C2C1C1;}
	.st6{fill:#0A0A0A;}
	.st7{fill:#FAAD44;}
	.st8{fill:#E95E91;}
	.st9{fill:#FB7C46;}
	.st10{fill:#EBB468;}
	.st11{fill:#E3E2E3;}
	.st12{fill:#C54F7E;}
	.st13{fill:#A3B14B;}
	.st14{fill:#CB786F;}
	.st15{fill:#F2F1F0;}
</style>
<g>
	<path class="st7" d="M523.73,517.46c0.18,1.92,0.35,3.84,0.53,5.76c-0.16,11.24-1.58,22.58,3.09,33.39
		c0.62,1.45,0.61,3.26,0.55,4.89c-0.09,2.39-0.61,5.04-3.61,4.97c-2.79-0.06-2.08-2.81-2.46-4.62c-0.25-1.21-0.08-2.75-1.68-2.76
		c-1.5,0.28-1.62,1.25-1.85,2.21c-0.65,2.67,1.13,7.21-2.86,7.44c-5.27,0.31-2.84-4.76-3.66-7.55c-0.12-0.4-0.56-0.7-0.88-1.09
		c-1.78,2.55,0.71,6.15-2.59,8.52c-1.8-1.02-3.71-2.1-5.63-3.19c-0.2-0.7-0.4-1.39-0.6-2.09c-0.82-4.34-7.64-4.95-6.52-10.49
		c-0.07-0.49,0.05-0.93,0.35-1.33c1.82-0.87,2.19-2.41,1.94-4.23l-0.04,0.13c2.17-1,2.34-2.3,0.6-3.89
		c-0.06-7.34-0.12-14.67-0.18-22.01c3.45-5.9,1.3-12.3,1.61-18.47c0.09-1.86-1.22-2.99-2.88-3.65c-0.15-1.98-0.3-3.95-0.45-5.93
		c2.8-7.81,2.43-15.2-2.86-21.95c-0.11-1.01-0.21-2.01-0.32-3.02c0.54-2.07,0.46-3.88-1.98-4.7c-1.77-0.79-0.82-3.46-2.83-4.08
		c-1.44,0.29-2.03,0.76-0.4,1.74c0.09,2.2-0.69,4.16-1.67,6.07c-3.44,2.3-2.32,5.61-1.93,8.75c-0.14,1.75-0.27,3.49-0.41,5.24
		c-3.39,7.04-6.03,14.16-2.36,21.96c0.19,1.55,0.02,3.01-0.98,4.28c-3.97,2-2.46,5.42-2.2,8.51c0.17,0.45,0.11,0.88-0.17,1.28
		c-2.03,0.89-2.35,2.55-2.02,4.49c-0.02,0.53-0.2,0.99-0.54,1.39c-3.8-0.02-7.61-0.03-11.41-0.05c-0.36-0.38-0.6-0.83-0.7-1.35
		c0.35-4.08-2.1-4.65-5.32-4.26c-0.26-3.99-1.19-7.73-2.89-11.42c-6.47-14.05-12.71-28.2-19.04-42.31c-0.81-2.16-1.4-4.45-2.5-6.44
		c-1.04-1.88-2.63-1.57-3.96-0.01c-7.91,6.64-15.22,14-23.77,19.88c-2.82,0.32-4.31,1.72-3.82,4.72
		c-10.03,10.61-21.52,19.64-32.26,29.48l-0.3-0.25c0.03-0.66,0.16-1.32,0.09-1.96c-0.62-5.29-8.06-15.8-11.87-15.27
		c-6.99,0.96-4.84,8.03-6.7,12.43c-0.51,1.2-0.98,2.48-1.11,3.76c-0.47,4.89,2.13,7.49,7.04,6.87c2.9-0.37,5.73-1.24,8.6-1.88
		l0.19,0.24c-1.21,2.55-3.55,3.78-5.95,4.83c-8,3.53-12.67,0.46-12.31-8.44c0.19-4.84,1.23-9.64,1.89-14.46
		c0.23-1.1,0.47-2.19,0.7-3.29c3.47-2.81,3.57-7.32,5.48-10.91c1.64-0.14,3.38,0.04,4.89-0.46c15.16-5.06,28.82-12.88,41.27-22.85
		c1.39-1.11,1.8-2.7,1.86-4.4l0.21-0.18c6.05,0.57,8.85-3.83,11.94-7.79c0.7-0.67,1.4-1.34,2.1-2.01
		c6.88-1.93,10.36-8.06,15.09-12.55c5.99-5.69,12.28-11.16,16.65-18.41c2.38-3.95,2.72-7.03-0.79-10.61
		c-3.38-3.45-6.47-7.32-8.96-11.45c-2.34-3.88-6.04-4.12-8.45-2.33c-5.93,4.38-13.21,8.12-13.61,17.07c0,0-0.21,0.25-0.21,0.25
		c-3.46-0.18-5.29,2.38-7.38,4.45c-4.71,4.65-9.12,9.66-14.12,13.98c-9.44,8.17-18.61,16.8-30.43,21.66
		c1.09-3.77,2.29-7.51,3.26-11.31c1.57-6.15,0.83-6.97-6.79-8.06c-0.99-0.79-1.91-2.14-2.98-2.27c-7.99-0.98-16-1.71-24.01-2.53
		c-6.38-1.66-12.75-3.42-19.42-3.44c-1.34-0.22-2.69-0.44-4.03-0.65c-2.25-2.24-5.11-2.08-7.95-2.02c-1-0.11-2.01-0.23-3.02-0.34
		c-0.72-1.05-1.73-1.56-2.98-1.61c-0.96-0.2-1.93-0.4-2.9-0.59c-1.13-1.99-2.74-3.22-5.11-3.26c-1.29-1.37-2.57-2.75-3.86-4.12
		c0.02-1.33,0.04-2.66,0.06-4c3.65-4.36,9.17-5.62,13.79-8.37c4.17-0.6,8.38-1.07,11.9-3.73c1.36-0.22,2.72-0.44,4.08-0.66
		c11.54-1.2,22.64-4.58,33.95-6.89c3.99-0.82,5.18-3.19,2.4-6.27c-3.51-3.9-5.9-8.8-10.41-11.81c-0.61-1.97-1.83-3.45-3.64-4.45
		c-0.59-2.53-1.84-4.55-4.33-5.62c-2.75-4.5-5.28-9.18-9.7-12.38c-0.55-2.55-1.81-4.54-4.33-5.57c-3.2-5.36-6.69-10.48-11.6-14.46
		c-0.56-2.58-1.9-4.57-4.32-5.74c-3.3-5.35-6.6-10.7-9.9-16.06c0.01-1.33,0.01-2.66,0.02-3.99c0.33-0.36,0.38-0.76,0.15-1.19
		c0.73-0.87,1.46-1.74,2.2-2.61c6.27-3.36,12.34-1.21,18.35,0.8c18.64,6.22,36.72,13.89,54.84,21.46c0.92,0.38,1.8,0.87,2.72,1.25
		c7.58,3.14,8.27,2.76,8.42-5.87c0.24-14.3,0.15-28.6,1.17-42.9c0.71-10.01,2.55-19.78,4.46-29.57c0.77-3.97,2.09-7.95,6.63-9.18
		c5.15-1.4,8.05,2.1,10.72,5.59c12.76,16.65,23.93,34.41,35.91,51.61c2.28,3.28,4.41,6.67,6.79,9.87c5.41,7.26,7.07,7.24,12.44,0.23
		c13.15-17.17,26.31-34.32,39.46-51.48c3.05-3.98,6.31-7.81,10.36-10.76c7.53-5.49,13.93-2.71,14.41,6.59
		c0.44,8.64-0.99,17.29-2.66,25.75c-3.16,15.98-6.86,31.86-10.34,47.77c-0.5,2.28-1.12,4.53-1.53,6.82
		c-1.11,6.33-0.21,7.86,6.46,7.91c13,0.1,25.9,1.56,38.86,2.16c9.66,0.45,19.26,1.37,28.67,3.58c5.11,1.2,11.56,2.23,12.08,8.63
		c0.5,6.22-5.51,8.57-10.26,10.85c-14.15,6.78-28.95,11.81-44.01,16.12c-6.07,1.74-12.12,3.62-18.05,5.79
		c-7.32,2.68-7.68,4.51-1.97,10.26c12.89,13.01,25.92,25.87,38.87,38.82c3.06,3.06,6.26,6.03,8.38,9.86
		c3.04,5.5,1.76,8.67-4.21,10.59c-1.25,0.4-2.6,0.73-3.9,0.71c-14.63-0.15-29.28,0.83-43.9-0.45c-2.36-1.88-4.03,0.4-5.98,1
		c-5.22-3.11-10.93-1.94-16.46-1.68c-3.54,0.17-5.18,2.64-4.85,6.16c0.29,3.04,2.61,3.49,5.05,3.49c5.61-0.01,11.23-0.1,16.84-0.15
		c0.65,0.1,1.31,0.18,1.97,0.22c0.08,1.04,0.16,2.07,0.24,3.11c-0.15,1.23,0.28,2.2,1.28,2.93c0,0,0.07,0.25,0.07,0.24
		c0.21,2.62-0.65,5.51,1.86,7.57c0.23,1.18,0.46,2.35,0.68,3.53c-0.38,1.75-0.28,3.35,1.34,4.49c0.25,1.79,0.51,3.57,0.76,5.37
		c-0.47,1.77-0.42,3.41,1.21,4.63c0.61,4.08,2.4,8,1.68,12.26c-1.6,1.4-1.38,2.64,0.32,3.76c0.52,3.43,1.04,6.87,1.56,10.3
		C521.76,515.21,522.08,516.42,523.73,517.46z M483.62,357.63c0,0,0.32,0.35,0.32,0.34c-0.75-1.25-1.49-2.49-2.24-3.74
		c2.04-7.28-0.55-10.8-8.91-12.13c-3.55-0.57-5.93,1.42-3.88,4.25c3.29,4.54-0.67,5.12-2.62,7c-6.21,2.31-10.45,6.94-14.22,12.12
		c-2.41,1.55-2.32,3.59-1.16,5.84c0.18,1.3,0.36,2.6,0.54,3.91c-0.89,0.19-1.77,0.39-2.66,0.58c-5.39,3.12-10.83-0.67-16.24,0.14
		c-1.28-3.55-0.31-7.27-0.84-10.86c-0.84-5.72-2.31-11.14-8.75-13.19c-11.2-8.95-23.95-6.76-30.38,5.2
		c-1.59,2.95-2.06,6.16-2.49,9.4c-2.33,9.04,1.88,15.04,9.25,19.37c8.21,4.83,16.31,4.15,24.08-1.16c3.2-2.18,5.11-6.14,9.39-6.86
		c4.19,4.11,9.31,4.31,14.67,3.5c3.47-0.24,4.62,3.55,7.5,4.33c6.15,8.16,15.31,11.07,24.11,7.66c8.19-3.17,15.14-13.49,13.79-21.93
		c-0.63-3.92-0.03-9.95-7.08-9.69l0.06,0.02C486.59,359.56,485.72,358.26,483.62,357.63z M414.03,333.68c-3.8,0-6.52,2.89-4.8,5.28
		c2.22,3.08,5.46,4.68,9.33,3.96c1.61-0.3,2.77-1.67,3.08-3.45c0.31-1.85-0.57-3.1-2.1-4.01
		C417.85,334.43,416.08,333.61,414.03,333.68z"/>
	<path class="st10" d="M556.97,257.6c8.46,0.03,13.51,6.98,11.56,15.82c-1.56,7.08-6.38,11.9-12.2,15.07
		c-10.55,5.74-21.08,11.27-28.56,21.11c-1.03,1.35-2.84,2.07-4.36,0.73c-2.08-1.83-0.69-3.4,0.68-5.02
		c7.51-8.87,16.03-16.33,26.8-21.18c4.51-2.03,8.56-5.17,10.48-10.21c1.16-3.05,1.09-5.83-1.34-8.28c-2.6-2.64-5.36-1.97-8.2-0.48
		c-3.66,1.92-6.28,4.81-8.27,8.39c-0.77,1.38-1.74,3.29-3.76,2.33c-2.26-1.08-1.76-3.4-1.29-5.26
		C540.16,264.16,549.63,257.57,556.97,257.6z"/>
	<path class="st10" d="M546.19,315.79c2.67-4.44,6.5-4.82,9.96-5.75c5.53-1.48,10.7-3.72,15.34-7.03c2.34-1.67,3.76-4.17,1.57-6.79
		c-1.8-2.16-4.24-1.37-6.3,0.01c-1.09,0.73-1.91,1.85-3,2.56c-0.88,0.57-2.04,0.45-2.59-0.54c-0.43-0.79-0.87-1.99-0.57-2.7
		c1.8-4.33,5.17-6.89,9.81-7.42c3.88-0.44,7.31,0.76,9.48,4.23c2.25,3.59,1.16,7.04-0.85,10.33
		C573.95,311.03,557.5,317.81,546.19,315.79z"/>
	<path class="st7" d="M324.42,468.66c0.26-0.41,0.21-0.78-0.15-1.11c-0.42-10.49-1.54-21.11,5.59-30.21
		c-0.11,2.3,0.33,4.81-0.44,6.86c-2.07,5.5-1.36,11.12-1.3,16.68c0.08,7.35,1.88,9.4,8.86,10.63c5.16,0.91,10.2,2.61,15.6,2.12
		c4.15-0.38,7.09,1.32,7.47,5.94c-1.52,0.8-3.03,1.59-4.55,2.39c-6.48-0.9-12.96-1.79-19.43-2.69l-0.5-0.3c0,0-0.55,0.2-0.55,0.2
		c-0.94-0.66-1.87-1.31-2.8-1.97c-1.6-2.31-3.57-4.24-5.94-5.76C325.64,470.51,325.03,469.59,324.42,468.66z"/>
	<path class="st10" d="M542.57,379.7c10.61,1.43,21.41,2.85,32.2,4.4c1.59,0.23,3.21,0.88,4.6,1.7c0.66,0.38,1.26,1.69,1.11,2.43
		c-0.15,0.77-1.16,1.83-1.91,1.93c-1.58,0.23-3.25,0.03-4.86-0.19c-12.11-1.61-24.07-4.25-36.32-4.85
		c-0.98-0.05-2.07-0.08-2.88-0.53c-0.77-0.43-1.72-1.39-1.72-2.11c0-0.73,1-1.97,1.71-2.08
		C537.08,379.96,539.72,379.91,542.57,379.7z"/>
	<path class="st10" d="M326.23,377.35c-11.07-1.75-22.58-3.14-33.84-5.99c-1.68-0.43-3.56-1.08-3.41-2.96
		c0.21-2.58,2.59-2.85,4.56-2.54c11.44,1.8,22.86,3.69,34.27,5.68c2.16,0.38,5.29,0.78,4.67,3.86
		C331.87,378.46,328.77,377.17,326.23,377.35z"/>
	<path class="st10" d="M375,301.94c-4.41,0.87-5.77-2.34-7.21-4.64c-5.27-8.45-10.93-16.61-16.89-24.58
		c-0.79-1.06-1.52-2.18-2.14-3.34c-0.66-1.23-0.8-2.65,0.18-3.71c1.55-1.67,3.08-0.59,4.28,0.55c1.68,1.6,3.39,3.25,4.68,5.15
		c4.84,7.14,9.61,14.33,14.21,21.63C373.78,295.64,375.88,298.39,375,301.94z"/>
	<path class="st10" d="M515.71,469.45c-2.5-2.06-1.64-4.95-1.86-7.57c5.81-0.5,10.93,1.04,15.96,4.14
		c6.79,4.18,14.05,7.61,21.06,11.45c1.44,0.79,2.96,1.95,2.02,3.93c-0.86,1.82-2.7,1.95-4.3,1.36c-8.46-3.13-16.47-7.18-24.01-12.15
		C521.84,468.78,519.12,466.34,515.71,469.45z"/>
	<path class="st10" d="M457.68,255.6c0,6.3,0.04,12.61-0.02,18.91c-0.02,1.97-0.12,4.38-2.77,4.35c-1.86-0.02-2.53-1.97-2.55-3.7
		c-0.12-12.27-0.18-24.54-0.25-36.82c0-0.66,0.05-1.35,0.25-1.97c0.52-1.6,1.27-3.31,3.18-3.27c2.11,0.04,2.46,1.89,2.48,3.6
		c0.04,6.3,0.02,12.6,0.02,18.9C457.91,255.6,457.8,255.6,457.68,255.6z"/>
	<path class="st10" d="M295.37,440.35c-2.98,0.31-4.68-0.1-4.94-2.08c-0.25-1.87,1.19-3.21,2.88-3.44
		c7.51-1.06,15.04-1.97,22.57-2.79c1.69-0.18,3.44,0.51,3.47,2.56c0.02,1.41-1.26,2.28-2.65,2.5
		C309.21,438.27,301.7,439.39,295.37,440.35z"/>
	<path class="st10" d="M512.27,455.59c-0.66-0.04-1.32-0.11-1.97-0.22c-0.19-2.61-0.38-5.21-0.57-7.82c1.95-0.6,3.62-2.88,5.98-1
		C514.56,449.56,513.42,452.57,512.27,455.59z"/>
	<path class="st10" d="M543.61,320.48c-0.34,1.41-1.24,2.44-2.65,2.51c-1.47,0.07-2.56-0.96-2.5-2.43c0.06-1.41,1.18-2.46,2.59-2.52
		C542.51,317.98,543.39,318.99,543.61,320.48z"/>
	<path class="st10" d="M521.72,503.48c-1.7-1.11-1.92-2.36-0.32-3.76C523.13,500.83,523.37,502.07,521.72,503.48z"/>
	<path class="st10" d="M523.73,517.46c-1.65-1.04-1.97-2.25-0.45-3.68c0.67,0.67,1.34,1.34,2,2.01
		C524.75,516.35,524.24,516.9,523.73,517.46z"/>
	<path class="st10" d="M519.71,487.46c-1.64-1.22-1.68-2.85-1.21-4.63C520.22,484.03,521.99,485.21,519.71,487.46z"/>
	<path class="st10" d="M517.74,477.47c-1.62-1.14-1.72-2.74-1.34-4.49C518.2,474.07,519.96,475.17,517.74,477.47z"/>
	<path class="st11" d="M294.2,297.54c-0.01,1.33-0.01,2.66-0.02,3.99C292.1,300.19,292.12,298.86,294.2,297.54z"/>
	<path class="st11" d="M332.2,477.2c0.93,0.66,1.87,1.31,2.8,1.97C333.66,479.09,332.7,478.47,332.2,477.2z"/>
	<path class="st11" d="M324.42,468.66c0.61,0.93,1.23,1.85,1.84,2.78C325.06,470.9,324.47,469.95,324.42,468.66z"/>
	<path class="st10" d="M513.79,461.63c-0.99-0.73-1.42-1.7-1.28-2.93C513.44,459.46,513.9,460.42,513.79,461.63z"/>
	<path class="st11" d="M298.08,415.51c1.26,0.05,2.27,0.56,2.98,1.61C299.77,417.13,298.76,416.63,298.08,415.51z"/>
	<path class="st11" d="M296.55,293.73c-0.73,0.87-1.46,1.74-2.2,2.61C294.51,295,295.23,294.11,296.55,293.73z"/>
	<path class="st3" d="M408.38,487.6c-0.09-1.35-0.19-2.69-0.28-4.04c0.63-0.02,1.26-0.06,1.89-0.13c2.51,0.05,4.14-1.56,6.06-2.87
		c4.55-3.12,8.22-7.57,13.73-9.25c0.1,27.31,0.21,54.61,0.29,81.92c0.03,9.99-0.06,19.98,0,29.97c0.02,3.93-1.25,6.41-5.66,6.35
		c-5.99-0.09-11.99-0.01-17.98-0.1c-1.27-0.02-2.75-0.1-3.2-1.76c-0.43-1.54,0.45-2.73,1.6-3.27c5.22-2.46,5.38-6.97,5.31-11.83
		c-0.15-10.32-0.18-20.65-0.06-30.97c0.08-6.98-0.88-14.04,0.66-20.91C413.26,509.39,412.26,498.42,408.38,487.6z"/>
	<path class="st10" d="M408.38,487.6c3.88,10.82,4.88,21.79,2.35,33.11c-1.54,6.88-0.58,13.94-0.66,20.91
		c-0.12,10.32-0.09,20.65,0.06,30.97c0.07,4.86-0.09,9.36-5.31,11.83c-1.15,0.54-2.02,1.73-1.6,3.27c0.46,1.66,1.94,1.74,3.2,1.76
		c5.99,0.09,11.99,0.02,17.98,0.1c4.42,0.06,5.69-2.41,5.66-6.35c-0.06-9.99,0.03-19.98,0-29.97c-0.08-27.31-0.19-54.61-0.29-81.92
		c0.09-4.57,0.17-9.13,0.25-13.7c1.33-1.56,2.91-1.87,3.96,0.01c1.11,2,1.69,4.28,2.5,6.44c-1.32,6.6,2.37,12.79,1.62,19.35
		c-0.04,32.14-0.08,64.27-0.1,96.4c0,1.99,0.01,3.98,0.22,5.95c0.19,1.76,1.23,2.9,3.02,3.48c3.8,1.23,21.78,0,26-2.03
		c-2.24-2.09-4.5-3.99-6.51-6.12c-2.74-2.9-4.11-6.07-0.83-9.56l0.98,0l0.98,0.06c-0.46,4.08,1.33,6.99,4.65,9.2
		c1.92,1.27,4.01,2.47,5.51,4.16c3,3.37,1.76,7.19-2.62,8.28c-1.89,0.47-3.95,0.34-5.94,0.34c-19.55,0.01-39.11,0-58.66-0.01
		c-0.33,0-0.66,0.01-0.99-0.01c-3.21-0.21-7.21,0.77-8.61-3.18c-1.23-3.46,2.28-5.15,4.28-7.17c3.22-3.25,7.52-5.78,6.75-11.37
		c1.17-1.3,1.55-2.88,1.55-4.57c-0.03-18.51-0.06-37.02-0.09-55.54c0.47-4.74,0.58-9.47-0.16-14.19
		C407.81,494.22,408.1,490.91,408.38,487.6z"/>
	<path class="st10" d="M519.55,573.52c-5.61-0.54-11.55,1.62-16.8-2c-0.02-2.03-0.04-4.05-0.06-6.08c1.92,1.09,3.84,2.17,5.63,3.19
		c3.3-2.37,0.81-5.97,2.59-8.52c0.32,0.38,0.76,0.69,0.88,1.09c0.82,2.79-1.61,7.85,3.66,7.55c3.99-0.23,2.21-4.77,2.86-7.44
		c0.23-0.97,0.35-1.94,1.85-2.21c1.6,0.01,1.42,1.55,1.68,2.76c0.38,1.81-0.33,4.56,2.46,4.62c3,0.07,3.52-2.59,3.61-4.97
		c0.06-1.63,0.07-3.45-0.55-4.89c-4.67-10.82-3.25-22.16-3.09-33.39c3.98,1.83,3.02,5.5,3.21,8.71c0.36,5.96-0.1,11.91,1.68,17.83
		C533.95,565.67,533.35,566.83,519.55,573.52z"/>
	<path class="st10" d="M409.99,483.44c-0.63,0.07-1.26,0.11-1.89,0.13c-0.96-4.29-3.61-1.58-5.66-1.36c-0.49-3,1-4.39,3.82-4.71
		C410.03,477.89,409.88,480.75,409.99,483.44z"/>
	<path class="st7" d="M368.18,513.67c-0.26,1.1-0.94,1.76-2.06,1.95c0,0-0.19-0.24-0.19-0.24c0.67-0.64,1.34-1.29,2.02-1.93
		L368.18,513.67z"/>
	<path class="st7" d="M370.19,511.69c-0.27,1.07-0.93,1.74-2.01,1.98c0,0-0.23-0.22-0.23-0.22c0.65-0.67,1.29-1.34,1.94-2.01
		L370.19,511.69z"/>
	<path class="st3" d="M332.02,433.5c0.08-1.04,0.52-1.84,1.52-2.27c8-0.04,15.92,0.55,23.65,2.8c-1.64,2.81-3.52,5.5-4.86,8.45
		c-1.92,4.21-6.66,8.93-1.83,13.17c4.26,3.74,9.19,0.7,13.29-2.27c5.17-0.44,9.4-3.12,13.39-6.04
		c14.18-10.39,26.92-22.42,38.99-35.16c1.2-1.26,1.69-2.81,1.76-4.52c0,0,0.21-0.25,0.21-0.25c6.37-3.1,9.03-11.41,16.92-12.6
		c2.75,5.48-5.1,6.82-3.81,11.72c4.71,0.88,5.84-5.95,10.11-5.42c1.75,4.1-3.56,5.91-2.37,9.22c1.99,0.77,3.02-0.06,4.1-0.81
		c1.35-0.94,2.72-2.02,4.28-0.14c-0.32,4.26-3.11,7.1-5.92,9.91c-6.08,6.09-12.2,12.14-18.25,18.27c-2.27,2.31-5.27,4.24-4.98,8.14
		c-0.7,0.67-1.4,1.34-2.1,2c-6.11-0.67-9.08,3.49-11.94,7.79c0,0-0.21,0.18-0.21,0.18c-2.53-0.01-4.15,1.63-6.02,3.03
		c-11.67,8.7-23.88,16.44-37.9,20.89c-0.38-4.63-3.32-6.32-7.47-5.94c-5.4,0.49-10.44-1.21-15.6-2.12
		c-6.98-1.23-8.78-3.28-8.86-10.63c-0.06-5.56-0.77-11.18,1.3-16.68c0.77-2.05,0.33-4.56,0.44-6.86c0,0-0.01,0.15-0.01,0.15
		C331.56,436.69,331.99,435.21,332.02,433.5z"/>
	<path class="st6" d="M390.09,366.49c0.43-3.24,0.91-6.45,2.49-9.4c6.42-11.95,19.18-14.15,30.38-5.2c0.61,1.88,1.29,3.75,1.83,5.65
		c3.24,11.5-4.72,22.84-16.44,22.99C398.77,380.65,393.05,375.24,390.09,366.49z"/>
	<path class="st6" d="M452.07,365.48c3.77-5.18,8-9.81,14.21-12.12c4.74,0.12,9.68-0.99,13.92,2.24c0.95,1.26,1.32,3.42,3.73,2.38
		c0,0-0.32-0.35-0.32-0.35c-0.93,2.29,0.37,3.35,2.25,4.1c0,0-0.06-0.02-0.06-0.02c0.05,1.95,0.15,3.9,0.16,5.85
		c0.04,7.58-3.13,13.56-9.95,16.76c-6.79,3.19-13.8,3.46-20.01-1.91c-1.52-2.4-3.04-4.8-4.56-7.2c-0.18-1.3-0.36-2.6-0.53-3.9
		C451.3,369.37,451.68,367.43,452.07,365.48z"/>
	<path class="st11" d="M390.09,366.49c2.96,8.75,8.69,14.15,18.26,14.04c11.72-0.14,19.68-11.48,16.44-22.99
		c-0.54-1.9-1.22-3.77-1.83-5.65c6.44,2.06,7.91,7.47,8.75,13.19c0.53,3.59-0.44,7.31,0.85,10.85c0.05,0.65,0.14,1.29,0.26,1.91
		c-4.28,0.72-6.19,4.67-9.39,6.86c-7.78,5.31-15.87,5.98-24.08,1.16C391.97,381.53,387.75,375.54,390.09,366.49z"/>
	<path class="st9" d="M418.21,445.68c-0.29-3.9,2.7-5.84,4.98-8.14c6.04-6.13,12.17-12.18,18.25-18.27c2.81-2.81,5.6-5.65,5.92-9.91
		c-1.56-1.88-2.94-0.8-4.28,0.14c-1.07,0.75-2.1,1.58-4.1,0.81c-1.18-3.31,4.12-5.12,2.37-9.22c-4.27-0.53-5.4,6.3-10.11,5.42
		c-1.29-4.9,6.56-6.24,3.81-11.72c-7.89,1.19-10.55,9.5-16.92,12.6c0.4-8.94,7.69-12.68,13.61-17.07c2.41-1.79,6.11-1.55,8.45,2.33
		c2.49,4.13,5.58,8,8.96,11.45c3.51,3.58,3.17,6.66,0.79,10.61c-4.37,7.25-10.66,12.72-16.65,18.41
		C428.57,437.62,425.09,443.74,418.21,445.68z"/>
	<path class="st11" d="M456.01,382.41c6.21,5.37,13.22,5.1,20.01,1.91c6.82-3.2,9.99-9.18,9.95-16.76c-0.01-1.95-0.1-3.9-0.16-5.85
		c7.05-0.26,6.45,5.77,7.08,9.69c1.35,8.44-5.6,18.76-13.79,21.93c-8.8,3.41-17.96,0.5-24.1-7.66
		C455.33,384.59,455.67,383.5,456.01,382.41z"/>
	<path class="st3" d="M369.89,511.44c-0.65,0.67-1.29,1.34-1.94,2.01c-0.67,0.65-1.34,1.29-2.02,1.93c-2.86,0.64-5.7,1.51-8.6,1.88
		c-4.91,0.62-7.51-1.98-7.04-6.87c0.12-1.28,0.6-2.56,1.11-3.76c1.86-4.41-0.29-11.47,6.7-12.43c3.81-0.53,11.25,9.98,11.87,15.27
		C370.05,510.12,369.92,510.78,369.89,511.44z"/>
	<path class="st9" d="M438.11,483.41c0.75-6.56-2.94-12.74-1.62-19.35c6.33,14.12,12.57,28.27,19.04,42.32
		c1.7,3.69,2.64,7.44,2.89,11.42c-0.48,1.99-0.15,4.3-2.26,5.64c-4.15-9.59-8.2-19.23-12.51-28.75
		C441.94,490.89,441.77,486.28,438.11,483.41z"/>
	<path class="st9" d="M363.79,453.37c-0.13-2.22,0.79-4.03,2.21-5.64c11.82-4.86,20.99-13.49,30.43-21.66
		c5-4.32,9.4-9.32,14.12-13.98c2.09-2.06,3.92-4.63,7.38-4.45c-0.06,1.71-0.56,3.25-1.76,4.52c-12.07,12.74-24.81,24.77-38.99,35.16
		C373.19,450.25,368.96,452.93,363.79,453.37z"/>
	<path class="st9" d="M409.99,483.44c-0.11-2.69,0.04-5.55-3.72-5.94c8.55-5.88,15.87-13.23,23.77-19.88
		c-0.08,4.57-0.17,9.14-0.25,13.7c-5.52,1.68-9.18,6.13-13.73,9.25C414.13,481.88,412.5,483.49,409.99,483.44z"/>
	<path class="st9" d="M509.73,447.55c0.19,2.61,0.38,5.21,0.57,7.82c-5.61,0.05-11.23,0.14-16.84,0.15c-2.44,0-4.76-0.45-5.05-3.49
		c-0.33-3.51,1.31-5.99,4.85-6.16C498.8,445.61,504.51,444.44,509.73,447.55z"/>
	<path class="st9" d="M362.47,428.36c-1.45,2.18-2.71,4.54-5.28,5.67c-7.72-2.25-15.64-2.83-23.64-2.8
		c0.64-2.56,1.28-5.11,1.93-7.67c8.01,0.81,16.03,1.55,24.01,2.53C360.56,426.22,361.48,427.57,362.47,428.36z"/>
	<path class="st9" d="M360.04,479.56c14.02-4.45,26.23-12.19,37.9-20.89c1.87-1.4,3.49-3.04,6.02-3.03c-0.07,1.7-0.48,3.29-1.86,4.4
		c-12.45,9.97-26.11,17.79-41.27,22.85c-1.51,0.5-3.25,0.32-4.89,0.46c-0.28-0.43-0.43-0.9-0.44-1.41
		C357.01,481.15,358.52,480.36,360.04,479.56z"/>
	<path class="st10" d="M456.17,523.45c2.11-1.34,1.78-3.65,2.26-5.64c3.23-0.39,5.68,0.19,5.33,4.27c-4.71,0.33-3.59,4.02-3.68,6.74
		c-0.29,8.95-0.37,17.9-0.52,26.86c-3.97-1.1-3.43-4.38-3.44-7.31C456.08,540.06,456.14,531.75,456.17,523.45z"/>
	<path class="st9" d="M480.2,355.6c-4.24-3.23-9.18-2.12-13.92-2.24c1.96-1.88,5.91-2.46,2.62-7c-2.05-2.83,0.32-4.82,3.88-4.25
		c8.37,1.33,10.95,4.85,8.91,12.13C481.2,354.69,480.7,355.14,480.2,355.6z"/>
	<path class="st6" d="M432.81,377.85c-0.12-0.62-0.21-1.26-0.26-1.91c5.4-0.8,10.85,2.99,16.24-0.13c0.92,2.17-0.28,3.83-1.31,5.54
		C442.12,382.15,437,381.96,432.81,377.85z"/>
	<path class="st9" d="M414.03,333.68c2.05-0.07,3.81,0.75,5.52,1.77c1.53,0.91,2.41,2.16,2.1,4.01c-0.3,1.79-1.47,3.15-3.08,3.45
		c-3.87,0.72-7.12-0.88-9.33-3.96C407.52,336.57,410.24,333.68,414.03,333.68z"/>
	<path class="st10" d="M498.23,521.55c0.14-7.41-3.12-14.62-1.27-22.13c1.67,0.67,2.98,1.79,2.88,3.65
		C499.53,509.25,501.68,515.65,498.23,521.55z"/>
	<path class="st10" d="M484.11,481.55c0.71,7.48-0.84,14.72-2.36,21.96C478.08,495.71,480.73,488.59,484.11,481.55z"/>
	<path class="st10" d="M496.51,493.49c-0.88-7.32-3.01-14.49-2.86-21.95C498.94,478.29,499.3,485.69,496.51,493.49z"/>
	<path class="st9" d="M404.17,455.47c2.87-4.3,5.83-8.46,11.94-7.79C413.02,451.64,410.22,456.04,404.17,455.47z"/>
	<path class="st10" d="M447.48,381.35c1.03-1.71,2.22-3.38,1.31-5.54c0.88-0.19,1.77-0.39,2.66-0.58c1.52,2.4,3.04,4.8,4.56,7.19
		c-0.34,1.09-0.67,2.17-1.02,3.26C452.1,384.9,450.96,381.11,447.48,381.35z"/>
	<path class="st10" d="M475.86,523.47c-5.16,5.37-6.28,5.36-11.41-0.05C468.26,523.44,472.06,523.46,475.86,523.47z"/>
	<path class="st10" d="M480.78,507.8c0.05,1.92,0.1,3.83,0.16,5.75c-0.79,0.92-1.57,1.84-2.36,2.76
		C478.32,513.22,476.81,509.8,480.78,507.8z"/>
	<path class="st10" d="M486.45,467.57c0.07,3.07,0.24,6.16-1.93,8.75C484.14,473.17,483.02,469.87,486.45,467.57z"/>
	<path class="st11" d="M480.2,355.6c0.5-0.46,1-0.91,1.5-1.37c0.74,1.25,1.49,2.5,2.24,3.74
		C481.52,359.02,481.15,356.86,480.2,355.6z"/>
	<path class="st10" d="M452.07,365.48c-0.39,1.95-0.77,3.89-1.16,5.84C449.76,369.07,449.67,367.02,452.07,365.48z"/>
	<path class="st10" d="M478.42,517.59c0.03,1.81-0.44,3.4-2.02,4.49C476.07,520.13,476.39,518.48,478.42,517.59z"/>
	<path class="st11" d="M485.87,361.74c-1.88-0.75-3.18-1.82-2.25-4.1C485.72,358.26,486.59,359.56,485.87,361.74z"/>
	<path class="st10" d="M493.33,468.53c-1.46-1.23-1.84-2.91-1.98-4.7C493.79,464.65,493.86,466.46,493.33,468.53z"/>
	<path class="st10" d="M488.52,459.75c0.11,0.64-0.03,1.22-0.4,1.74C486.49,460.51,487.08,460.03,488.52,459.75z"/>
	<path class="st7" d="M332.02,433.5c-0.03,1.71-0.47,3.2-2.18,3.99C329.86,435.77,330.41,434.35,332.02,433.5z"/>
	<path class="st3" d="M456.17,523.45c-0.02,8.3-0.08,16.61-0.06,24.91c0.01,2.92-0.53,6.21,3.44,7.31
		c0.12,5.29,0.24,10.58,0.36,15.87c-3.28,3.49-1.92,6.66,0.83,9.56c2.02,2.13,4.27,4.03,6.51,6.12c-4.21,2.03-22.2,3.27-26,2.03
		c-1.79-0.58-2.83-1.72-3.02-3.48c-0.22-1.97-0.23-3.97-0.22-5.95c0.02-32.13,0.07-64.27,0.1-96.4c3.66,2.86,3.83,7.48,5.55,11.29
		C447.97,504.22,452.02,513.86,456.17,523.45z"/>
</g>
</svg>
