<?xml version="1.0" encoding="utf-8"?>
<!-- Generator: Adobe Illustrator 24.3.0, SVG Export Plug-In . SVG Version: 6.00 Build 0)  -->
<svg version="1.1" id="Layer_1" xmlns="http://www.w3.org/2000/svg" xmlns:xlink="http://www.w3.org/1999/xlink" x="0px" y="0px"
	 viewBox="0 0 881 823" style="enable-background:new 0 0 881 823;" xml:space="preserve">
<style type="text/css">
	.st0{fill:#46B4F4;}
	.st1{fill:#ED6092;}
	.st2{fill:#9971B3;}
	.st3{fill:#FAAD44;}
	.st4{fill:#FBAD40;}
	.st5{fill:#FA7E4A;}
	.st6{fill:#C2C1C1;}
	.st7{fill:#0A0A0A;}
	.st8{fill:#E95E91;}
	.st9{fill:#FB7C46;}
	.st10{fill:#EBB468;}
	.st11{fill:#E3E2E3;}
	.st12{fill:#C54F7E;}
	.st13{fill:#A3B14B;}
	.st14{fill:#CB786F;}
	.st15{fill:#F2F1F0;}
</style>
<g>
	<path class="st2" d="M508.88,544.98c-0.57,19.3-0.7,38.61,0,57.92c-1.89,6.3,2.65,8.87,6.79,11.64c2.1,1.41,3.49,3.18,2.66,5.77
		c-0.72,2.25-2.79,2.58-4.84,2.58c-12.86-0.03-25.72-0.06-38.58-0.15c-3.98-0.03-6.02-2.15-6.1-6.16
		c-0.12-5.27-0.29-10.54-0.44-15.81c0.19-10.31,0.55-20.62,0.53-30.93c-0.03-10.39,0.57-20.84-0.61-33.12
		c-6.26,6.03-10.99,10.63-15.77,15.17c-6.67,6.33-6.71,6.32-13.55,0.07c-5-4.56-9.96-9.16-16.06-14.78
		c-0.57,22.61-0.76,43.19-0.01,63.78c-0.13,4.96-0.35,9.92-0.35,14.88c0,4.42-1.89,6.88-6.46,6.91
		c-12.24,0.06-24.48,0.12-36.72,0.15c-2.39,0.01-4.86-0.36-5.69-2.98c-0.87-2.72,1.21-4.48,3.17-5.57c4.56-2.53,7.02-5.9,5.87-11.27
		c0.07-19.32,0.14-38.65,0.21-57.97c0.03-13.32-0.06-26.65,0.14-39.97c0.06-4.09-1.63-6.85-4.47-9.49
		c-27.6-25.59-55.18-51.2-82.68-76.9c-20.21-18.89-40.99-37.11-62.38-54.64c-1.79-1.47-3.49-3.15-4.83-5.03
		c-2.83-3.97-2.37-5.95,2.59-8.11c2.19-0.96,3.56-1.42,2.7-3.99c-0.21-0.63-0.49-1.26-0.57-1.91c-0.37-3.04,0.79-6.12,3.84-5.76
		c6.74,0.79,3.2-6.23,6.6-7.76c4.71-2.12,7.48,1.29,10.6,3.59c1.6,1.18,2.97,2.67,4.48,3.98c1.46,1.27,2.96,2.49,4.39,3.68
		c2.71-2.21,1.88-5.34,3.46-7.47c1.09-1.46,2.4-2.26,4.2-2.13c1.85,0.13,3.11,1.19,3.54,2.96c0.54,2.26,1.36,4.6,1.23,6.86
		c-0.45,8.25,4.12,13.54,9.73,18.69c10.8,9.91,21.22,20.21,32.61,29.49c4.19,3.42,6.84,3.32,10.77-0.46
		c20.41-19.63,41.03-39.04,61.68-58.41c16.03-15.04,32.25-29.88,48.32-44.89c6.63-6.19,6.58-6.31,13.62,0.13
		c11.8,10.79,23.78,21.4,35.19,32.59c4.15,4.07,8.25,4.78,13.5,4.1c5.93-0.77,11.94-1.01,17.92-1.38c1.99-0.12,4-0.05,5.99,0.11
		c2.39,0.2,4.85,0.8,5.33,3.56c0.51,2.95-1.88,3.95-4.14,4.72c-3.49,1.19-7.08,1.78-10.77,2.02c-3.25,0.21-6.68-0.15-9.98,2.18
		c2.35,4.84,7.09,7.05,10.56,10.4c15.34,14.8,30.94,29.34,46.35,44.08c5.88,5.63,5.43,5.29,11.34,0.64
		c9.44-7.43,18.16-15.66,26.53-24.26c2.91-2.99,4.6-6.35,4.88-10.61c0.22-3.3,1.02-6.58,1.73-9.83c0.45-2.05,1.61-3.8,3.9-3.95
		c2.29-0.15,3.45,1.53,4.43,3.39c0.88,1.69,0.42,4.03,2.89,5.37c4.12-3,8.24-6.37,12.72-9.17c5.43-3.39,6.93-3.04,9.7,2.79
		c1.06,2.22,2.2,2.77,4.21,3.3c3.1,0.83,4.05,3.14,3.31,6.21c-0.49,2.04-2.58,4.55,1.41,5.39c3.02,0.64,4.91,2.34,4.52,5.51
		c-0.48,3.91-3.26,6.33-6.16,8.73c-10.52,8.7-21.25,17.19-31.34,26.38c-26.1,23.77-51.91,47.86-77.81,71.85
		c-8.55,7.92-16.99,15.97-25.53,23.91c-2.78,2.59-4.57,5.31-4.54,9.46C508.7,518.34,508.03,531.66,508.88,544.98z M423.24,387.1
		c-1.18-8.15-7.64-10.44-14.13-11.21c-7.85-0.93-14.91,1.49-18.8,9.37c-6.22,8.48-6.19,16.76,0.1,24.36
		c6.32,7.64,17.54,10.1,26.12,5.73c7.99-4.07,13.15-14.26,11.28-22.53C427.24,390.25,426.63,387.5,423.24,387.1z M502.96,385.26
		c-10.03-13.49-23.38-13.49-34.42-0.01c-5.98,10.21-4.66,20.77,3.46,27.64c7.73,6.55,19.7,6.47,27.41-0.17
		C507.59,405.68,509.02,394.57,502.96,385.26z M446.58,389.65c-2.73,0-4.41-0.13-6.06,0.02c-7.49,0.67-10.08,5.23-7.08,12.37
		c2.21,5.27,8.27,7.88,14.22,6.13c6.11-1.79,10.08-7.71,9.03-13.74C455.45,387.29,449.71,390.08,446.58,389.65z M521.97,327.71
		c-8.05-0.09-16.15-2.1-23.71,1.78C506.44,332.12,514.23,329.16,521.97,327.71z"/>
	<path class="st10" d="M440.87,200.12c4.68,3.31,5.05,9.57,9.82,11.68c4.53,2,9.69-1.97,14.13,0.38c0.94,1.33,0.74,2.46,0.06,3.1
		c-6.24,5.9-9.89,12.09-5.08,20.95c1.79,3.29-0.81,4.8-4.26,3.72c-1.26-0.4-2.53-0.85-3.68-1.5c-4.92-2.76-8.79-1.5-12.13,2.79
		c-1.34,1.72-2.65,4.34-5.5,3.01c-2.15-1-1.87-3.5-1.54-5.3c1.43-7.86-2.63-12.18-8.91-15.86c-3.84-2.25-3.4-5.62,0.66-5.89
		c10.11-0.68,13.02-7.19,14.64-15.43C439.18,201.29,439.96,200.93,440.87,200.12z"/>
	<path class="st10" d="M548.06,259.15c-7.78,2.45-13.98,4.91-16.38,12.78c-0.84,2.74-3.76,3.22-5.05,0.07
		c-2.16-5.26-5.34-8.06-11.34-7.42c-2.88,0.3-4.87-1.75-2.82-4.36c4.05-5.16,5.62-10.21,2.67-16.48c-0.93-1.97,0.77-4.68,3.05-3.2
		c7.16,4.64,13.03,1.72,20.17-4.13C537.46,246.76,539.76,254.15,548.06,259.15z"/>
	<path class="st10" d="M353.38,236.46c6.82,6.08,12.55,8.19,19.45,5.02c2.07-0.95,4.19,1.01,3.23,3.34
		c-2.26,5.5-1.67,10.06,2.33,14.6c2.23,2.53,1.68,5.34-2.41,5.11c-5.47-0.31-8.44,1.68-10.23,7.05c-1.34,4.02-4.44,4.07-6.14,0.09
		c-2.41-5.65-5.84-9.29-11.94-10.67c-2.68-0.61-4.27-3.49-1.41-5.01C353.55,252.13,353.17,245.45,353.38,236.46z"/>
	<path class="st10" d="M300.1,282.26c4,4.92,7.24,8.04,12.6,7.15c2.2-0.37,4.45,1.59,2.93,3.62c-3.94,5.25-4.24,10.77-0.82,18.11
		c-7.63-2.64-13.18-4.66-18.14,0.8c-1.29,1.42-3.46-0.77-2.98-2.4c1.51-5.13-0.54-8.08-4.82-10.53c-2.15-1.23-2.15-4.11,0.26-4.5
		C295.49,293.49,296.98,288.18,300.1,282.26z"/>
	<path class="st10" d="M591.79,281.53c2.75,8.19,5.32,13.14,13.37,12.17c-2.84,7.2-12.12,9.18-6.51,19.44
		c-8.18-4.41-13.84-6.48-20.89-1.39c0.99-8.26,2.01-15.02-2.92-21.41C581.38,288.89,587.85,289.62,591.79,281.53z"/>
	<path class="st15" d="M502.96,385.26c6.07,9.31,4.63,20.41-3.55,27.46c-7.71,6.64-19.68,6.72-27.41,0.17
		c-8.11-6.87-9.43-17.43-3.46-27.64c1.83,5.32,3.62,10.6,9.17,13.47C488.33,404.21,498.27,398.96,502.96,385.26z"/>
	<path class="st15" d="M423.24,387.1c3.4,0.41,4,3.15,4.58,5.72c1.86,8.27-3.29,18.46-11.28,22.53c-8.58,4.37-19.8,1.91-26.12-5.73
		c-6.29-7.6-6.32-15.88-0.1-24.36c0.71,5.48,2.81,10.15,7.72,13.16C408.08,404.6,418.49,399.92,423.24,387.1z"/>
	<path class="st7" d="M423.24,387.1c-4.74,12.82-15.16,17.5-25.2,11.33c-4.91-3.01-7.01-7.68-7.72-13.16
		c3.89-7.88,10.95-10.3,18.8-9.37C415.6,376.66,422.05,378.95,423.24,387.1z"/>
	<path class="st7" d="M502.96,385.26c-4.69,13.7-14.62,18.95-25.25,13.46c-5.55-2.87-7.34-8.15-9.17-13.47
		C479.58,371.77,492.92,371.77,502.96,385.26z"/>
	<path class="st7" d="M446.58,389.65c3.13,0.43,8.87-2.35,10.11,4.78c1.05,6.04-2.92,11.95-9.03,13.74
		c-5.95,1.75-12-0.87-14.22-6.13c-3-7.14-0.41-11.7,7.08-12.37C442.17,389.52,443.85,389.65,446.58,389.65z"/>
	<path class="st6" d="M521.97,327.71c-7.75,1.45-15.53,4.41-23.71,1.78C505.83,325.62,513.92,327.63,521.97,327.71z"/>
</g>
</svg>
